<svg width="284" height="60" viewBox="0 0 284 60" fill="none" xmlns="http://www.w3.org/2000/svg">
<path d="M77.8892 25L84.2386 12.4432V12.3366H76.8949V10.4545H86.5114V12.4006L80.1832 25H77.8892ZM94.4996 10.4545V25H92.2979V12.6562H92.2127L88.7326 14.929V12.8267L92.3619 10.4545H94.4996ZM103.235 25.1989C102.345 25.1989 101.545 25.0284 100.835 24.6875C100.129 24.3419 99.5659 23.8684 99.1445 23.267C98.7231 22.6657 98.4982 21.9792 98.4698 21.2074H100.6C100.653 21.8324 100.93 22.3461 101.431 22.7486C101.933 23.151 102.535 23.3523 103.235 23.3523C103.794 23.3523 104.289 23.2244 104.72 22.9688C105.155 22.7083 105.496 22.3509 105.743 21.8963C105.993 21.4418 106.119 20.9233 106.119 20.3409C106.119 19.7491 105.991 19.2211 105.735 18.7571C105.48 18.2931 105.127 17.9285 104.677 17.6634C104.232 17.3982 103.721 17.2633 103.143 17.2585C102.703 17.2585 102.26 17.3343 101.815 17.4858C101.37 17.6373 101.01 17.8362 100.735 18.0824L98.7255 17.7841L99.5423 10.4545H107.539V12.3366H101.368L100.906 16.4062H100.991C101.275 16.1316 101.652 15.902 102.12 15.7173C102.594 15.5327 103.1 15.4403 103.64 15.4403C104.526 15.4403 105.314 15.651 106.005 16.0724C106.701 16.4938 107.248 17.0691 107.646 17.7983C108.048 18.5227 108.247 19.3561 108.243 20.2983C108.247 21.2405 108.034 22.081 107.603 22.8196C107.177 23.5582 106.585 24.1406 105.828 24.5668C105.075 24.9882 104.211 25.1989 103.235 25.1989ZM116.328 25V10.4545H125.448V12.3438H118.523V16.7756H124.972V18.6577H118.523V23.1108H125.533V25H116.328ZM130.332 10.4545V25H128.209V10.4545H130.332ZM136.364 25.2415C135.673 25.2415 135.048 25.1136 134.489 24.858C133.93 24.5975 133.488 24.2211 133.161 23.7287C132.839 23.2363 132.678 22.6326 132.678 21.9176C132.678 21.3021 132.796 20.7955 133.033 20.3977C133.27 20 133.589 19.6851 133.992 19.4531C134.394 19.2211 134.844 19.0459 135.341 18.9276C135.838 18.8092 136.345 18.7192 136.861 18.6577C137.515 18.5819 138.045 18.5204 138.452 18.473C138.859 18.4209 139.155 18.3381 139.34 18.2244C139.525 18.1108 139.617 17.9261 139.617 17.6705V17.6207C139.617 17.0005 139.442 16.5199 139.091 16.179C138.746 15.8381 138.23 15.6676 137.543 15.6676C136.828 15.6676 136.265 15.8262 135.853 16.1435C135.445 16.456 135.164 16.804 135.007 17.1875L133.012 16.733C133.248 16.0701 133.594 15.535 134.049 15.1278C134.508 14.7159 135.036 14.4176 135.632 14.233C136.229 14.0436 136.856 13.9489 137.515 13.9489C137.95 13.9489 138.412 14.0009 138.9 14.1051C139.392 14.2045 139.851 14.3892 140.277 14.6591C140.708 14.929 141.061 15.3149 141.336 15.8168C141.61 16.3139 141.748 16.9602 141.748 17.7557V25H139.674V23.5085H139.588C139.451 23.7831 139.245 24.053 138.971 24.3182C138.696 24.5833 138.343 24.8035 137.912 24.9787C137.481 25.1539 136.965 25.2415 136.364 25.2415ZM136.826 23.5369C137.413 23.5369 137.915 23.4209 138.331 23.1889C138.753 22.9569 139.072 22.6539 139.29 22.2798C139.513 21.901 139.624 21.4962 139.624 21.0653V19.6591C139.548 19.7348 139.401 19.8059 139.184 19.8722C138.971 19.9337 138.727 19.9882 138.452 20.0355C138.177 20.0781 137.91 20.1184 137.65 20.1562C137.389 20.1894 137.171 20.2178 136.996 20.2415C136.584 20.2936 136.208 20.3812 135.867 20.5043C135.531 20.6274 135.261 20.8049 135.057 21.0369C134.858 21.2642 134.759 21.5672 134.759 21.946C134.759 22.4716 134.953 22.8693 135.341 23.1392C135.73 23.4044 136.224 23.5369 136.826 23.5369ZM150.039 25V10.4545H155.224C156.351 10.4545 157.286 10.6487 158.029 11.0369C158.778 11.4252 159.336 11.9626 159.706 12.6491C160.075 13.331 160.26 14.1193 160.26 15.0142C160.26 15.9044 160.073 16.688 159.699 17.3651C159.329 18.0374 158.77 18.5606 158.022 18.9347C157.279 19.3087 156.344 19.4957 155.217 19.4957H151.289V17.6065H155.018C155.728 17.6065 156.306 17.5047 156.751 17.3011C157.201 17.0975 157.53 16.8016 157.738 16.4134C157.947 16.0251 158.051 15.5587 158.051 15.0142C158.051 14.465 157.944 13.9891 157.731 13.5866C157.523 13.1842 157.194 12.8764 156.744 12.6634C156.299 12.4455 155.714 12.3366 154.99 12.3366H152.234V25H150.039ZM157.22 18.4375L160.814 25H158.314L154.791 18.4375H157.22ZM166.707 25.2131C165.826 25.2131 165.04 24.9882 164.349 24.5384C163.662 24.0838 163.122 23.4375 162.729 22.5994C162.341 21.7566 162.147 20.7457 162.147 19.5668C162.147 18.3878 162.344 17.3793 162.737 16.5412C163.134 15.7031 163.679 15.0616 164.37 14.6165C165.061 14.1714 165.845 13.9489 166.721 13.9489C167.398 13.9489 167.942 14.0625 168.354 14.2898C168.771 14.5123 169.093 14.7727 169.32 15.071C169.552 15.3693 169.732 15.6321 169.86 15.8594H169.988V10.4545H172.112V25H170.038V23.3026H169.86C169.732 23.5346 169.548 23.7997 169.306 24.098C169.069 24.3963 168.743 24.6567 168.326 24.8793C167.909 25.1018 167.37 25.2131 166.707 25.2131ZM167.175 23.402C167.786 23.402 168.302 23.241 168.724 22.919C169.15 22.5923 169.472 22.1402 169.69 21.5625C169.912 20.9848 170.023 20.3125 170.023 19.5455C170.023 18.7879 169.915 18.125 169.697 17.5568C169.479 16.9886 169.159 16.5459 168.738 16.2287C168.317 15.9115 167.796 15.7528 167.175 15.7528C166.536 15.7528 166.004 15.9186 165.577 16.25C165.151 16.5814 164.829 17.0336 164.612 17.6065C164.398 18.1795 164.292 18.8258 164.292 19.5455C164.292 20.2746 164.401 20.9304 164.619 21.5128C164.836 22.0952 165.158 22.5568 165.585 22.8977C166.015 23.2339 166.546 23.402 167.175 23.402ZM176.542 25.1349C176.153 25.1349 175.819 24.9976 175.54 24.723C175.261 24.4437 175.121 24.1075 175.121 23.7145C175.121 23.3262 175.261 22.9948 175.54 22.7202C175.819 22.4408 176.153 22.3011 176.542 22.3011C176.93 22.3011 177.264 22.4408 177.543 22.7202C177.822 22.9948 177.962 23.3262 177.962 23.7145C177.962 23.9749 177.896 24.214 177.763 24.4318C177.635 24.6449 177.465 24.8153 177.252 24.9432C177.039 25.071 176.802 25.1349 176.542 25.1349ZM77.598 49V34.4545H79.7926V47.1108H86.3835V49H77.598ZM91.8913 49.2415C91.2 49.2415 90.575 49.1136 90.0163 48.858C89.4576 48.5975 89.0149 48.2211 88.6882 47.7287C88.3662 47.2363 88.2053 46.6326 88.2053 45.9176C88.2053 45.3021 88.3236 44.7955 88.5604 44.3977C88.7971 44 89.1167 43.6851 89.5192 43.4531C89.9216 43.2211 90.3714 43.0459 90.8686 42.9276C91.3658 42.8092 91.8724 42.7192 92.3885 42.6577C93.0419 42.5819 93.5722 42.5204 93.9794 42.473C94.3866 42.4209 94.6825 42.3381 94.8672 42.2244C95.0518 42.1108 95.1442 41.9261 95.1442 41.6705V41.6207C95.1442 41.0005 94.969 40.5199 94.6186 40.179C94.273 39.8381 93.7569 39.6676 93.0703 39.6676C92.3554 39.6676 91.7919 39.8262 91.38 40.1435C90.9728 40.456 90.6911 40.804 90.5348 41.1875L88.5391 40.733C88.7758 40.0701 89.1214 39.535 89.576 39.1278C90.0353 38.7159 90.5632 38.4176 91.1598 38.233C91.7564 38.0436 92.3838 37.9489 93.0419 37.9489C93.4775 37.9489 93.9392 38.0009 94.4268 38.1051C94.9193 38.2045 95.3786 38.3892 95.8047 38.6591C96.2356 38.929 96.5883 39.3149 96.8629 39.8168C97.1375 40.3139 97.2749 40.9602 97.2749 41.7557V49H95.201V47.5085H95.1158C94.9785 47.7831 94.7725 48.053 94.4979 48.3182C94.2232 48.5833 93.8705 48.8035 93.4396 48.9787C93.0088 49.1539 92.4927 49.2415 91.8913 49.2415ZM92.353 47.5369C92.9401 47.5369 93.442 47.4209 93.8587 47.1889C94.2801 46.9569 94.5997 46.6539 94.8175 46.2798C95.04 45.901 95.1513 45.4962 95.1513 45.0653V43.6591C95.0755 43.7348 94.9287 43.8059 94.7109 43.8722C94.4979 43.9337 94.254 43.9882 93.9794 44.0355C93.7048 44.0781 93.4373 44.1184 93.1768 44.1562C92.9164 44.1894 92.6986 44.2178 92.5234 44.2415C92.1115 44.2936 91.7351 44.3812 91.3942 44.5043C91.058 44.6274 90.7881 44.8049 90.5845 45.0369C90.3857 45.2642 90.2862 45.5672 90.2862 45.946C90.2862 46.4716 90.4804 46.8693 90.8686 47.1392C91.2569 47.4044 91.7517 47.5369 92.353 47.5369ZM102.056 45.2997L102.042 42.7074H102.412L106.758 38.0909H109.301L104.343 43.3466H104.01L102.056 45.2997ZM100.103 49V34.4545H102.227V49H100.103ZM106.993 49L103.086 43.8153L104.549 42.331L109.599 49H106.993ZM115.489 49.2202C114.414 49.2202 113.488 48.9905 112.712 48.5312C111.94 48.0672 111.343 47.4162 110.922 46.5781C110.505 45.7353 110.297 44.7481 110.297 43.6165C110.297 42.4991 110.505 41.5142 110.922 40.6619C111.343 39.8097 111.93 39.1444 112.683 38.6662C113.441 38.188 114.326 37.9489 115.339 37.9489C115.955 37.9489 116.552 38.0507 117.129 38.2543C117.707 38.4579 118.225 38.7775 118.685 39.2131C119.144 39.6487 119.506 40.2145 119.771 40.9105C120.036 41.6018 120.169 42.4422 120.169 43.4318V44.1847H111.497V42.5938H118.088C118.088 42.035 117.974 41.5402 117.747 41.1094C117.52 40.6738 117.2 40.3305 116.788 40.0795C116.381 39.8286 115.903 39.7031 115.354 39.7031C114.757 39.7031 114.236 39.8499 113.791 40.1435C113.351 40.4323 113.01 40.8111 112.768 41.2798C112.532 41.7438 112.413 42.2481 112.413 42.7926V44.0355C112.413 44.7647 112.541 45.3849 112.797 45.8963C113.057 46.4077 113.42 46.7983 113.884 47.0682C114.348 47.3333 114.89 47.4659 115.51 47.4659C115.912 47.4659 116.279 47.4091 116.611 47.2955C116.942 47.1771 117.229 47.0019 117.47 46.7699C117.712 46.5379 117.896 46.2514 118.024 45.9105L120.034 46.2727C119.873 46.8646 119.584 47.383 119.168 47.8281C118.756 48.2685 118.237 48.6117 117.612 48.858C116.992 49.0994 116.284 49.2202 115.489 49.2202ZM127.612 49V47.5369L135.261 36.3438H127.548V34.4545H137.946V35.9176L130.297 47.1108H138.01V49H127.612ZM147.502 44.4759V38.0909H149.633V49H147.545V47.1108H147.431C147.18 47.6932 146.778 48.1785 146.224 48.5668C145.674 48.9503 144.99 49.142 144.171 49.142C143.47 49.142 142.85 48.9882 142.31 48.6804C141.775 48.3679 141.354 47.9062 141.046 47.2955C140.743 46.6847 140.592 45.9295 140.592 45.0298V38.0909H142.715V44.7741C142.715 45.5175 142.921 46.1094 143.333 46.5497C143.745 46.9901 144.28 47.2102 144.938 47.2102C145.336 47.2102 145.731 47.1108 146.124 46.9119C146.522 46.7131 146.851 46.4124 147.112 46.0099C147.377 45.6075 147.507 45.0961 147.502 44.4759ZM152.486 49V38.0909H154.539V39.8239H154.652C154.851 39.2367 155.202 38.7751 155.703 38.4389C156.21 38.098 156.783 37.9276 157.422 37.9276C157.555 37.9276 157.711 37.9323 157.891 37.9418C158.076 37.9512 158.22 37.9631 158.324 37.9773V40.0085C158.239 39.9848 158.087 39.9588 157.87 39.9304C157.652 39.8973 157.434 39.8807 157.216 39.8807C156.714 39.8807 156.267 39.9872 155.874 40.2003C155.486 40.4086 155.178 40.6998 154.951 41.0739C154.723 41.4432 154.61 41.8646 154.61 42.3381V49H152.486ZM160.162 49V38.0909H162.286V49H160.162ZM161.234 36.4077C160.865 36.4077 160.548 36.2846 160.283 36.0384C160.022 35.7874 159.892 35.4891 159.892 35.1435C159.892 34.7931 160.022 34.4948 160.283 34.2486C160.548 33.9976 160.865 33.8722 161.234 33.8722C161.604 33.8722 161.919 33.9976 162.179 34.2486C162.444 34.4948 162.577 34.7931 162.577 35.1435C162.577 35.4891 162.444 35.7874 162.179 36.0384C161.919 36.2846 161.604 36.4077 161.234 36.4077ZM169.738 49.2202C168.682 49.2202 167.773 48.9811 167.01 48.5028C166.253 48.0199 165.67 47.3546 165.263 46.5071C164.856 45.6596 164.652 44.6889 164.652 43.5952C164.652 42.4872 164.861 41.5095 165.277 40.6619C165.694 39.8097 166.281 39.1444 167.039 38.6662C167.796 38.188 168.689 37.9489 169.716 37.9489C170.545 37.9489 171.283 38.1027 171.932 38.4105C172.581 38.7135 173.104 39.1397 173.502 39.6889C173.904 40.2382 174.143 40.8797 174.219 41.6136H172.152C172.039 41.1023 171.778 40.6619 171.371 40.2926C170.969 39.9233 170.429 39.7386 169.752 39.7386C169.16 39.7386 168.641 39.8949 168.196 40.2074C167.756 40.5152 167.413 40.9555 167.167 41.5284C166.92 42.0966 166.797 42.7689 166.797 43.5455C166.797 44.3409 166.918 45.0275 167.159 45.6051C167.401 46.1828 167.742 46.6302 168.182 46.9474C168.627 47.2647 169.15 47.4233 169.752 47.4233C170.154 47.4233 170.519 47.3499 170.846 47.2031C171.177 47.0516 171.454 46.8362 171.676 46.5568C171.904 46.2775 172.062 45.9413 172.152 45.5483H174.219C174.143 46.2538 173.914 46.8835 173.53 47.4375C173.147 47.9915 172.633 48.4271 171.989 48.7443C171.35 49.0616 170.599 49.2202 169.738 49.2202ZM178.614 42.5227V49H176.49V34.4545H178.585V39.8665H178.72C178.976 39.2794 179.366 38.813 179.892 38.4673C180.418 38.1217 181.104 37.9489 181.952 37.9489C182.7 37.9489 183.353 38.1027 183.912 38.4105C184.475 38.7183 184.911 39.1776 185.219 39.7884C185.531 40.3944 185.688 41.152 185.688 42.0611V49H183.564V42.3168C183.564 41.5166 183.358 40.8963 182.946 40.456C182.534 40.0109 181.961 39.7884 181.227 39.7884C180.725 39.7884 180.276 39.8949 179.878 40.108C179.485 40.321 179.175 40.6335 178.947 41.0455C178.725 41.4527 178.614 41.9451 178.614 42.5227ZM191.284 47.0114L191.178 47.7855C191.107 48.3537 190.986 48.9455 190.815 49.5611C190.65 50.1813 190.477 50.7566 190.297 51.2869C190.122 51.8172 189.977 52.2386 189.864 52.5511H188.358C188.42 52.2576 188.505 51.8598 188.614 51.358C188.723 50.8608 188.829 50.3045 188.933 49.6889C189.037 49.0734 189.116 48.446 189.168 47.8068L189.239 47.0114H191.284ZM201.707 34.4545V49H199.512V34.4545H201.707ZM204.903 49V34.4545H207.097V47.1108H213.688V49H204.903ZM226.364 49.1989C225.715 49.1894 225.076 49.071 224.446 48.8438C223.821 48.6165 223.253 48.2377 222.742 47.7074C222.23 47.1771 221.821 46.4645 221.513 45.5696C221.21 44.6747 221.059 43.5573 221.059 42.2173C221.059 40.9484 221.184 39.8215 221.435 38.8366C221.691 37.8518 222.058 37.0208 222.536 36.3438C223.014 35.6619 223.592 35.1435 224.269 34.7884C224.946 34.4332 225.706 34.2557 226.549 34.2557C227.415 34.2557 228.185 34.4261 228.857 34.767C229.529 35.108 230.074 35.5791 230.49 36.1804C230.912 36.7817 231.179 37.4659 231.293 38.233H229.127C228.98 37.6269 228.689 37.1321 228.253 36.7486C227.818 36.3651 227.249 36.1733 226.549 36.1733C225.483 36.1733 224.652 36.6373 224.056 37.5653C223.464 38.4934 223.166 39.7836 223.161 41.4361H223.267C223.518 41.0241 223.826 40.6738 224.191 40.3849C224.56 40.0914 224.972 39.8665 225.426 39.7102C225.886 39.5492 226.369 39.4688 226.875 39.4688C227.718 39.4688 228.48 39.6747 229.162 40.0866C229.849 40.4938 230.396 41.0573 230.803 41.777C231.21 42.4967 231.414 43.3205 231.414 44.2486C231.414 45.1766 231.203 46.017 230.782 46.7699C230.365 47.5227 229.778 48.1193 229.02 48.5597C228.263 48.9953 227.377 49.2083 226.364 49.1989ZM226.357 47.3523C226.916 47.3523 227.415 47.215 227.855 46.9403C228.296 46.6657 228.644 46.2964 228.9 45.8324C229.155 45.3684 229.283 44.8499 229.283 44.277C229.283 43.7183 229.158 43.2093 228.907 42.75C228.66 42.2907 228.319 41.9261 227.884 41.6562C227.453 41.3864 226.961 41.2514 226.407 41.2514C225.985 41.2514 225.595 41.3319 225.235 41.4929C224.88 41.6539 224.567 41.8764 224.297 42.1605C224.027 42.4446 223.814 42.7713 223.658 43.1406C223.507 43.5052 223.431 43.8911 223.431 44.2983C223.431 44.8428 223.556 45.3471 223.807 45.8111C224.063 46.2751 224.411 46.6491 224.851 46.9332C225.296 47.2126 225.798 47.3523 226.357 47.3523ZM239.065 49.2415C237.942 49.2367 236.984 48.9408 236.188 48.3537C235.393 47.7666 234.784 46.9119 234.363 45.7898C233.942 44.6676 233.731 43.3158 233.731 41.7344C233.731 40.1577 233.942 38.8106 234.363 37.6932C234.789 36.5758 235.4 35.7235 236.195 35.1364C236.996 34.5492 237.952 34.2557 239.065 34.2557C240.177 34.2557 241.131 34.5516 241.927 35.1435C242.722 35.7306 243.331 36.5829 243.752 37.7003C244.178 38.813 244.391 40.1577 244.391 41.7344C244.391 43.3205 244.181 44.6747 243.759 45.7969C243.338 46.9143 242.729 47.7689 241.934 48.3608C241.138 48.9479 240.182 49.2415 239.065 49.2415ZM239.065 47.3452C240.049 47.3452 240.819 46.8646 241.373 45.9034C241.932 44.9422 242.211 43.5526 242.211 41.7344C242.211 40.527 242.083 39.5066 241.827 38.6733C241.576 37.8352 241.214 37.2008 240.741 36.7699C240.272 36.3343 239.713 36.1165 239.065 36.1165C238.085 36.1165 237.315 36.5994 236.756 37.5653C236.198 38.5312 235.916 39.9209 235.911 41.7344C235.911 42.9465 236.037 43.9716 236.288 44.8097C236.543 45.643 236.906 46.2751 237.374 46.706C237.843 47.1321 238.406 47.3452 239.065 47.3452ZM251.975 49.2415C250.853 49.2367 249.894 48.9408 249.098 48.3537C248.303 47.7666 247.694 46.9119 247.273 45.7898C246.852 44.6676 246.641 43.3158 246.641 41.7344C246.641 40.1577 246.852 38.8106 247.273 37.6932C247.699 36.5758 248.31 35.7235 249.105 35.1364C249.906 34.5492 250.862 34.2557 251.975 34.2557C253.087 34.2557 254.042 34.5516 254.837 35.1435C255.632 35.7306 256.241 36.5829 256.662 37.7003C257.088 38.813 257.301 40.1577 257.301 41.7344C257.301 43.3205 257.091 44.6747 256.669 45.7969C256.248 46.9143 255.64 47.7689 254.844 48.3608C254.049 48.9479 253.092 49.2415 251.975 49.2415ZM251.975 47.3452C252.96 47.3452 253.729 46.8646 254.283 45.9034C254.842 44.9422 255.121 43.5526 255.121 41.7344C255.121 40.527 254.993 39.5066 254.738 38.6733C254.487 37.8352 254.124 37.2008 253.651 36.7699C253.182 36.3343 252.623 36.1165 251.975 36.1165C250.995 36.1165 250.225 36.5994 249.667 37.5653C249.108 38.5312 248.826 39.9209 248.821 41.7344C248.821 42.9465 248.947 43.9716 249.198 44.8097C249.453 45.643 249.816 46.2751 250.284 46.706C250.753 47.1321 251.317 47.3452 251.975 47.3452ZM259.516 46.1591V44.3835L265.801 34.4545H267.2V37.0682H266.312L261.817 44.1847V44.2983H270.432V46.1591H259.516ZM266.412 49V45.6193L266.426 44.8097V34.4545H268.507V49H266.412ZM273.397 49L279.746 36.4432V36.3366H272.403V34.4545H282.019V36.4006L275.691 49H273.397Z" fill="white"/>
<path d="M25 59.6269C24.7009 59.6287 24.4044 59.5707 24.1276 59.4564C23.8507 59.3422 23.5989 59.1738 23.3865 58.9609L7.31981 42.8859C5.00017 40.5573 3.15923 37.788 1.90298 34.7375C0.646739 31.687 0 28.4155 0 25.1114C0 21.8073 0.646739 18.5359 1.90298 15.4854C3.15923 12.4349 5.00017 9.66561 7.31981 7.33699C12.0285 2.63614 18.3809 0 25 0C31.6191 0 37.9715 2.63614 42.6802 7.33699C44.9998 9.66561 46.8408 12.4349 48.097 15.4854C49.3533 18.5359 50 21.8073 50 25.1114C50 28.4155 49.3533 31.687 48.097 34.7375C46.8408 37.788 44.9998 40.5573 42.6802 42.8859L26.6135 58.9609C26.4011 59.1738 26.1493 59.3422 25.8724 59.4564C25.5956 59.5707 25.2991 59.6287 25 59.6269ZM25 4.51237C19.5761 4.49892 14.369 6.66315 10.5241 10.529C8.63041 12.4307 7.1276 14.692 6.1021 17.1828C5.0766 19.6736 4.54866 22.3447 4.54866 25.0425C4.54866 27.7403 5.0766 30.4115 6.1021 32.9023C7.1276 35.3931 8.63041 37.6544 10.5241 39.556L25 54.0925L39.4759 39.556C41.3696 37.6544 42.8724 35.3931 43.8979 32.9023C44.9234 30.4115 45.4513 27.7403 45.4513 25.0425C45.4513 22.3447 44.9234 19.6736 43.8979 17.1828C42.8724 14.692 41.3696 12.4307 39.4759 10.529C35.631 6.66315 30.4239 4.49892 25 4.51237Z" fill="white"/>
<path d="M25.9954 36.6675C23.7481 36.6675 21.5513 35.9941 19.6827 34.7324C17.8141 33.4707 16.3578 31.6775 15.4977 29.5794C14.6377 27.4813 14.4127 25.1726 14.8511 22.9453C15.2896 20.7179 16.3718 18.672 17.9608 17.0662C19.5499 15.4604 21.5745 14.3668 23.7787 13.9238C25.9828 13.4807 28.2674 13.7081 30.3437 14.5772C32.4199 15.4462 34.1945 16.9179 35.4431 18.8062C36.6916 20.6944 37.358 22.9144 37.358 25.1853C37.358 28.2306 36.1609 31.1511 34.03 33.3045C31.8991 35.4578 29.009 36.6675 25.9954 36.6675ZM25.9954 18.296C24.647 18.296 23.3289 18.7001 22.2078 19.4571C21.0866 20.2141 20.2128 21.29 19.6968 22.5489C19.1808 23.8078 19.0458 25.193 19.3089 26.5294C19.5719 27.8658 20.2212 29.0933 21.1747 30.0568C22.1281 31.0203 23.3429 31.6764 24.6654 31.9423C25.9878 32.2081 27.3586 32.0717 28.6044 31.5502C29.8501 31.0288 30.9149 30.1458 31.664 29.0128C32.4131 27.8799 32.813 26.5479 32.813 25.1853C32.813 23.3582 32.0947 21.6058 30.8161 20.3138C29.5376 19.0218 27.8035 18.296 25.9954 18.296Z" fill="white"/>
</svg>
