<svg width="330" height="68" viewBox="0 0 330 68" fill="none" xmlns="http://www.w3.org/2000/svg">
<path d="M0 7.07031H35.2225L0 63.3408V7.07031Z" fill="white"/>
<rect y="19.375" width="12.2975" height="56.8833" transform="rotate(-90 0 19.375)" fill="white"/>
<path d="M27.1172 7.07031H61.9629L27.1172 63.3408V7.07031Z" fill="white"/>
<path d="M53.8516 7.07031H66.283V63.3408H53.8516V7.07031Z" fill="white"/>
<path d="M79.4399 32V9.65H84.9635L93.1053 22.9004L88.7949 22.8684L97.0325 9.65H102.365V32H96.2662V26.0294C96.2662 24.1136 96.3088 22.3895 96.3939 20.8569C96.5004 19.3244 96.6706 17.8024 96.9048 16.2911L97.6072 18.1749L91.892 27.0191H89.7847L84.1972 18.1749L84.8996 16.2911C85.1338 17.7173 85.2934 19.186 85.3786 20.6973C85.485 22.1873 85.5382 23.9646 85.5382 26.0294V32H79.4399ZM104.625 32L113.533 9.65H118.641L127.486 32H121.196L117.364 21.6232C117.151 21.0485 116.96 20.5164 116.79 20.0268C116.619 19.5372 116.46 19.0583 116.311 18.59C116.162 18.1217 116.013 17.6428 115.864 17.1532C115.736 16.6636 115.619 16.1315 115.512 15.5568L116.534 15.5249C116.406 16.1421 116.268 16.6956 116.119 17.1851C115.991 17.6747 115.853 18.143 115.704 18.59C115.555 19.037 115.385 19.5053 115.193 19.9949C115.023 20.4844 114.831 21.0272 114.618 21.6232L110.787 32H104.625ZM108.967 28.2963L110.851 23.8263H121.196L122.952 28.2963H108.967ZM133.494 32L124.586 9.65H130.972L134.835 20.0587C135.091 20.7186 135.303 21.2933 135.474 21.7829C135.644 22.2511 135.793 22.6981 135.921 23.1239C136.048 23.5283 136.176 23.9646 136.304 24.4329C136.432 24.8799 136.559 25.4227 136.687 26.0613H135.633C135.825 25.2311 136.006 24.5287 136.176 23.954C136.346 23.3793 136.527 22.8046 136.719 22.2299C136.932 21.6551 137.198 20.9314 137.517 20.0587L141.317 9.65H147.543L138.571 32H133.494ZM150.063 32V9.65H166.315V14.8544H156.13V26.7956H166.794V32H150.063ZM153.064 23.1239V18.2069H165.038V23.1239H153.064ZM171.11 32V9.65H176.761L187.617 24.5287L186.308 24.2094C186.201 23.4219 186.106 22.7088 186.02 22.0702C185.957 21.4316 185.893 20.825 185.829 20.2503C185.786 19.6756 185.744 19.1009 185.701 18.5261C185.68 17.9514 185.669 17.3235 185.669 16.6424C185.669 15.9612 185.669 15.1949 185.669 14.3435V9.65H191.768V32H186.052L174.366 16.0357L176.57 16.5785C176.676 17.4512 176.761 18.2069 176.825 18.8454C176.91 19.484 176.974 20.0587 177.017 20.5696C177.059 21.0804 177.091 21.57 177.112 22.0383C177.155 22.5066 177.176 23.0068 177.176 23.5389C177.197 24.0711 177.208 24.6777 177.208 25.3589V32H171.11Z" fill="white"/>
<path d="M79.7232 59.2891V41.8735H82.9773V44.708H83.1927C83.5555 43.7481 84.1489 42.9997 84.9728 42.4631C85.7967 41.9188 86.7832 41.6467 87.9321 41.6467C89.0962 41.6467 90.0713 41.9188 90.8574 42.4631C91.6511 43.0073 92.2369 43.7556 92.6148 44.708H92.7962C93.212 43.7783 93.8734 43.0375 94.7804 42.4857C95.6875 41.9264 96.7684 41.6467 98.0232 41.6467C99.603 41.6467 100.892 42.1418 101.89 43.132C102.895 44.1222 103.398 45.6151 103.398 47.6106V59.2891H100.007V47.9281C100.007 46.7489 99.6861 45.8948 99.0436 45.3657C98.4011 44.8365 97.6339 44.572 96.742 44.572C95.6384 44.572 94.7804 44.9121 94.1682 45.5924C93.5559 46.2652 93.2498 47.1307 93.2498 48.1889V59.2891H89.871V47.7127C89.871 46.7678 89.5762 46.0082 88.9866 45.4337C88.397 44.8592 87.6298 44.572 86.6849 44.572C86.0424 44.572 85.449 44.7421 84.9048 45.0822C84.3681 45.4148 83.9335 45.8797 83.6009 46.4768C83.2759 47.074 83.1134 47.7656 83.1134 48.5517V59.2891H79.7232ZM113.01 59.6746C111.906 59.6746 110.908 59.4705 110.016 59.0623C109.124 58.6466 108.418 58.0456 107.896 57.2595C107.382 56.4734 107.125 55.5096 107.125 54.3683C107.125 53.3856 107.314 52.5768 107.692 51.9419C108.07 51.3069 108.58 50.8043 109.223 50.4339C109.865 50.0635 110.583 49.7838 111.377 49.5948C112.171 49.4059 112.979 49.2623 113.803 49.164C114.846 49.043 115.693 48.9448 116.343 48.8692C116.993 48.786 117.465 48.6538 117.76 48.4724C118.055 48.2909 118.202 47.9961 118.202 47.588V47.5086C118.202 46.5184 117.923 45.7512 117.363 45.2069C116.812 44.6627 115.988 44.3906 114.892 44.3906C113.75 44.3906 112.851 44.6438 112.193 45.1502C111.543 45.6491 111.093 46.2047 110.844 46.817L107.658 46.0913C108.036 45.0331 108.588 44.1789 109.313 43.5289C110.046 42.8712 110.889 42.395 111.842 42.1002C112.794 41.7979 113.796 41.6467 114.846 41.6467C115.542 41.6467 116.279 41.7299 117.057 41.8962C117.843 42.0549 118.577 42.3497 119.257 42.7805C119.945 43.2114 120.508 43.8274 120.946 44.6287C121.385 45.4224 121.604 46.4541 121.604 47.724V59.2891H118.293V56.908H118.157C117.938 57.3464 117.609 57.7773 117.171 58.2006C116.732 58.6239 116.169 58.9754 115.481 59.255C114.793 59.5347 113.97 59.6746 113.01 59.6746ZM113.747 56.9534C114.684 56.9534 115.485 56.7682 116.15 56.3978C116.823 56.0274 117.333 55.5437 117.681 54.9465C118.036 54.3418 118.214 53.6955 118.214 53.0077V50.7627C118.093 50.8836 117.859 50.997 117.511 51.1028C117.171 51.2011 116.781 51.288 116.343 51.3636C115.905 51.4316 115.478 51.4959 115.062 51.5564C114.646 51.6093 114.298 51.6546 114.019 51.6924C113.361 51.7756 112.76 51.9154 112.216 52.1119C111.679 52.3085 111.248 52.5919 110.923 52.9623C110.606 53.3251 110.447 53.8089 110.447 54.4136C110.447 55.2526 110.757 55.8876 111.377 56.3184C111.997 56.7417 112.787 56.9534 113.747 56.9534ZM126.119 59.2891V41.8735H129.396V44.64H129.578C129.895 43.7027 130.454 42.9657 131.256 42.4291C132.064 41.8848 132.979 41.6127 134 41.6127C134.211 41.6127 134.461 41.6203 134.748 41.6354C135.043 41.6505 135.273 41.6694 135.439 41.6921V44.9348C135.303 44.897 135.062 44.8554 134.714 44.8101C134.366 44.7572 134.018 44.7307 133.671 44.7307C132.869 44.7307 132.155 44.9008 131.528 45.2409C130.908 45.5735 130.417 46.0384 130.054 46.6356C129.691 47.2251 129.51 47.8979 129.51 48.6538V59.2891H126.119ZM141.491 53.3818L141.469 49.2434H142.058L148.997 41.8735H153.056L145.142 50.2638H144.609L141.491 53.3818ZM138.373 59.2891V36.0683H141.763V59.2891H138.373ZM149.371 59.2891L143.135 51.0121L145.471 48.6424L153.533 59.2891H149.371ZM162.935 59.6405C161.219 59.6405 159.741 59.2739 158.502 58.5407C157.269 57.8 156.317 56.7606 155.644 55.4227C154.979 54.0772 154.647 52.5012 154.647 50.6947C154.647 48.9108 154.979 47.3385 155.644 45.9779C156.317 44.6173 157.254 43.5553 158.456 42.7919C159.666 42.0284 161.079 41.6467 162.697 41.6467C163.679 41.6467 164.632 41.8092 165.554 42.1343C166.476 42.4593 167.304 42.9695 168.037 43.6649C168.77 44.3603 169.348 45.2636 169.772 46.3748C170.195 47.4784 170.407 48.8201 170.407 50.3999V51.6017H156.563V49.0619H167.085C167.085 48.17 166.903 47.3801 166.54 46.6922C166.178 45.9968 165.667 45.4488 165.01 45.0482C164.36 44.6476 163.596 44.4473 162.719 44.4473C161.767 44.4473 160.935 44.6816 160.225 45.1502C159.522 45.6113 158.978 46.216 158.592 46.9644C158.214 47.7051 158.025 48.5101 158.025 49.3794V51.3636C158.025 52.5277 158.229 53.5179 158.638 54.3342C159.053 55.1506 159.632 55.7742 160.372 56.2051C161.113 56.6283 161.979 56.84 162.969 56.84C163.611 56.84 164.197 56.7493 164.726 56.5679C165.255 56.3789 165.713 56.0992 166.098 55.7288C166.484 55.3585 166.778 54.9012 166.983 54.3569L170.191 54.9352C169.934 55.88 169.473 56.7077 168.808 57.4182C168.15 58.1212 167.323 58.6692 166.325 59.0623C165.335 59.4478 164.205 59.6405 162.935 59.6405ZM182.298 41.8735V44.5947H172.785V41.8735H182.298ZM175.336 37.701H178.726V54.1755C178.726 54.8331 178.824 55.3282 179.021 55.6608C179.217 55.9858 179.471 56.2088 179.781 56.3298C180.098 56.4432 180.442 56.4998 180.812 56.4998C181.085 56.4998 181.323 56.481 181.527 56.4432C181.731 56.4054 181.89 56.3751 182.003 56.3525L182.615 59.153C182.419 59.2286 182.139 59.3042 181.776 59.3798C181.413 59.4629 180.96 59.5083 180.416 59.5158C179.524 59.5309 178.692 59.3722 177.921 59.0396C177.15 58.707 176.527 58.193 176.05 57.4976C175.574 56.8022 175.336 55.9292 175.336 54.8785V37.701ZM186.048 59.2891V41.8735H189.438V59.2891H186.048ZM187.76 39.1863C187.17 39.1863 186.664 38.9898 186.241 38.5967C185.825 38.1961 185.617 37.7199 185.617 37.1681C185.617 36.6087 185.825 36.1325 186.241 35.7395C186.664 35.3389 187.17 35.1385 187.76 35.1385C188.35 35.1385 188.852 35.3389 189.268 35.7395C189.691 36.1325 189.903 36.6087 189.903 37.1681C189.903 37.7199 189.691 38.1961 189.268 38.5967C188.852 38.9898 188.35 39.1863 187.76 39.1863ZM197.389 48.9486V59.2891H193.999V41.8735H197.253V44.708H197.468C197.869 43.7859 198.496 43.0451 199.35 42.4857C200.212 41.9264 201.297 41.6467 202.605 41.6467C203.791 41.6467 204.831 41.8962 205.723 42.395C206.615 42.8864 207.306 43.6196 207.797 44.5947C208.289 45.5698 208.534 46.7754 208.534 48.2116V59.2891H205.144V48.6197C205.144 47.3574 204.816 46.371 204.158 45.6605C203.5 44.9424 202.597 44.5833 201.448 44.5833C200.662 44.5833 199.963 44.7534 199.35 45.0935C198.746 45.4337 198.266 45.9326 197.911 46.5902C197.563 47.2403 197.389 48.0264 197.389 48.9486ZM220.383 66.1827C219 66.1827 217.809 66.0013 216.811 65.6385C215.821 65.2757 215.012 64.7957 214.385 64.1985C213.758 63.6014 213.289 62.9475 212.979 62.237L215.893 61.0352C216.097 61.3677 216.369 61.7192 216.709 62.0896C217.057 62.4676 217.526 62.7888 218.115 63.0534C218.712 63.3179 219.48 63.4502 220.417 63.4502C221.702 63.4502 222.764 63.1365 223.603 62.5091C224.442 61.8893 224.862 60.8991 224.862 59.5385V56.1143H224.646C224.442 56.4847 224.147 56.8967 223.762 57.3502C223.384 57.8037 222.862 58.1968 222.197 58.5294C221.532 58.862 220.666 59.0283 219.601 59.0283C218.225 59.0283 216.985 58.707 215.882 58.0645C214.786 57.4145 213.916 56.4583 213.274 55.1959C212.639 53.9261 212.321 52.3652 212.321 50.5132C212.321 48.6613 212.635 47.074 213.263 45.7512C213.897 44.4284 214.767 43.4155 215.87 42.7125C216.974 42.002 218.225 41.6467 219.623 41.6467C220.704 41.6467 221.577 41.8281 222.242 42.1909C222.908 42.5462 223.425 42.962 223.796 43.4382C224.174 43.9144 224.465 44.3339 224.669 44.6967H224.918V41.8735H228.24V59.6746C228.24 61.1712 227.893 62.3995 227.197 63.3595C226.502 64.3195 225.561 65.03 224.374 65.4911C223.195 65.9522 221.864 66.1827 220.383 66.1827ZM220.349 56.2164C221.324 56.2164 222.148 55.9896 222.821 55.5361C223.501 55.075 224.015 54.4174 224.363 53.5632C224.718 52.7015 224.896 51.6697 224.896 50.4679C224.896 49.2963 224.722 48.2645 224.374 47.3725C224.026 46.4806 223.516 45.7852 222.843 45.2863C222.171 44.7799 221.339 44.5266 220.349 44.5266C219.329 44.5266 218.478 44.7912 217.798 45.3203C217.118 45.8419 216.604 46.5524 216.256 47.4519C215.916 48.3514 215.746 49.3567 215.746 50.4679C215.746 51.6093 215.919 52.6108 216.267 53.4725C216.615 54.3342 217.129 55.007 217.809 55.4907C218.497 55.9745 219.344 56.2164 220.349 56.2164ZM248.539 66.1827C247.155 66.1827 245.965 66.0013 244.967 65.6385C243.977 65.2757 243.168 64.7957 242.541 64.1985C241.913 63.6014 241.445 62.9475 241.135 62.237L244.049 61.0352C244.253 61.3677 244.525 61.7192 244.865 62.0896C245.213 62.4676 245.681 62.7888 246.271 63.0534C246.868 63.3179 247.635 63.4502 248.573 63.4502C249.858 63.4502 250.92 63.1365 251.759 62.5091C252.598 61.8893 253.017 60.8991 253.017 59.5385V56.1143H252.802C252.598 56.4847 252.303 56.8967 251.918 57.3502C251.54 57.8037 251.018 58.1968 250.353 58.5294C249.688 58.862 248.822 59.0283 247.756 59.0283C246.381 59.0283 245.141 58.707 244.037 58.0645C242.941 57.4145 242.072 56.4583 241.43 55.1959C240.795 53.9261 240.477 52.3652 240.477 50.5132C240.477 48.6613 240.791 47.074 241.418 45.7512C242.053 44.4284 242.923 43.4155 244.026 42.7125C245.13 42.002 246.381 41.6467 247.779 41.6467C248.86 41.6467 249.733 41.8281 250.398 42.1909C251.063 42.5462 251.581 42.962 251.952 43.4382C252.329 43.9144 252.621 44.3339 252.825 44.6967H253.074V41.8735H256.396V59.6746C256.396 61.1712 256.048 62.3995 255.353 63.3595C254.658 64.3195 253.717 65.03 252.53 65.4911C251.351 65.9522 250.02 66.1827 248.539 66.1827ZM248.505 56.2164C249.48 56.2164 250.304 55.9896 250.976 55.5361C251.657 55.075 252.171 54.4174 252.518 53.5632C252.874 52.7015 253.051 51.6697 253.051 50.4679C253.051 49.2963 252.878 48.2645 252.53 47.3725C252.182 46.4806 251.672 45.7852 250.999 45.2863C250.326 44.7799 249.495 44.5266 248.505 44.5266C247.484 44.5266 246.634 44.7912 245.954 45.3203C245.273 45.8419 244.759 46.5524 244.412 47.4519C244.071 48.3514 243.901 49.3567 243.901 50.4679C243.901 51.6093 244.075 52.6108 244.423 53.4725C244.771 54.3342 245.285 55.007 245.965 55.4907C246.653 55.9745 247.499 56.2164 248.505 56.2164ZM260.943 59.2891V41.8735H264.22V44.64H264.401C264.718 43.7027 265.278 42.9657 266.079 42.4291C266.888 41.8848 267.802 41.6127 268.823 41.6127C269.035 41.6127 269.284 41.6203 269.571 41.6354C269.866 41.6505 270.097 41.6694 270.263 41.6921V44.9348C270.127 44.897 269.885 44.8554 269.537 44.8101C269.19 44.7572 268.842 44.7307 268.494 44.7307C267.693 44.7307 266.979 44.9008 266.351 45.2409C265.731 45.5735 265.24 46.0384 264.877 46.6356C264.514 47.2251 264.333 47.8979 264.333 48.6538V59.2891H260.943ZM279.909 59.6405C278.276 59.6405 276.851 59.2664 275.634 58.5181C274.417 57.7697 273.473 56.7228 272.8 55.3774C272.127 54.0319 271.791 52.4596 271.791 50.6606C271.791 48.8541 272.127 47.2743 272.8 45.9212C273.473 44.5682 274.417 43.5175 275.634 42.7692C276.851 42.0209 278.276 41.6467 279.909 41.6467C281.542 41.6467 282.966 42.0209 284.183 42.7692C285.4 43.5175 286.345 44.5682 287.018 45.9212C287.691 47.2743 288.027 48.8541 288.027 50.6606C288.027 52.4596 287.691 54.0319 287.018 55.3774C286.345 56.7228 285.4 57.7697 284.183 58.5181C282.966 59.2664 281.542 59.6405 279.909 59.6405ZM279.92 56.7946C280.978 56.7946 281.855 56.515 282.551 55.9556C283.246 55.3963 283.76 54.6517 284.093 53.722C284.433 52.7922 284.603 51.768 284.603 50.6493C284.603 49.5381 284.433 48.5177 284.093 47.588C283.76 46.6507 283.246 45.8986 282.551 45.3317C281.855 44.7647 280.978 44.4813 279.92 44.4813C278.854 44.4813 277.97 44.7647 277.267 45.3317C276.572 45.8986 276.054 46.6507 275.714 47.588C275.381 48.5177 275.215 49.5381 275.215 50.6493C275.215 51.768 275.381 52.7922 275.714 53.722C276.054 54.6517 276.572 55.3963 277.267 55.9556C277.97 56.515 278.854 56.7946 279.92 56.7946ZM302.843 52.0666V41.8735H306.245V59.2891H302.911V56.2731H302.73C302.329 57.2028 301.687 57.9776 300.802 58.5974C299.926 59.2097 298.833 59.5158 297.526 59.5158C296.407 59.5158 295.417 59.2702 294.555 58.7788C293.701 58.28 293.028 57.543 292.537 56.5679C292.053 55.5928 291.811 54.3871 291.811 52.951V41.8735H295.201V52.5428C295.201 53.7295 295.53 54.6744 296.188 55.3774C296.845 56.0803 297.7 56.4318 298.75 56.4318C299.385 56.4318 300.016 56.2731 300.644 55.9556C301.279 55.6381 301.804 55.1582 302.22 54.5157C302.643 53.8731 302.851 53.0568 302.843 52.0666ZM310.8 65.8199V41.8735H314.111V44.6967H314.394C314.591 44.3339 314.874 43.9144 315.245 43.4382C315.615 42.962 316.129 42.5462 316.787 42.1909C317.444 41.8281 318.314 41.6467 319.394 41.6467C320.8 41.6467 322.055 42.002 323.159 42.7125C324.262 43.423 325.128 44.4473 325.755 45.7852C326.39 47.1231 326.708 48.7331 326.708 50.6153C326.708 52.4974 326.394 54.1113 325.767 55.4567C325.139 56.7946 324.277 57.8264 323.181 58.5521C322.085 59.2702 320.834 59.6292 319.428 59.6292C318.37 59.6292 317.505 59.4516 316.832 59.0963C316.167 58.741 315.645 58.3253 315.267 57.8491C314.889 57.3729 314.598 56.9496 314.394 56.5792H314.19V65.8199H310.8ZM314.122 50.5813C314.122 51.8058 314.3 52.8792 314.655 53.8013C315.01 54.7235 315.524 55.4454 316.197 55.9669C316.87 56.481 317.694 56.738 318.669 56.738C319.682 56.738 320.528 56.4696 321.209 55.9329C321.889 55.3887 322.403 54.6517 322.751 53.722C323.106 52.7922 323.283 51.7453 323.283 50.5813C323.283 49.4323 323.11 48.4005 322.762 47.4859C322.422 46.5713 321.908 45.8494 321.22 45.3203C320.54 44.7912 319.689 44.5266 318.669 44.5266C317.686 44.5266 316.855 44.7799 316.174 45.2863C315.502 45.7927 314.991 46.4995 314.644 47.4066C314.296 48.3136 314.122 49.3719 314.122 50.5813Z" fill="white"/>
</svg>
