<svg width="333" height="162" viewBox="0 0 333 162" fill="none" xmlns="http://www.w3.org/2000/svg">
<path d="M3.16051 49V12.6364H27.2372V18.9751H10.8487V27.6399H25.6392V33.9787H10.8487V49H3.16051ZM32.2665 49V21.7273H39.8304V49H32.2665ZM36.0662 18.2116C34.9417 18.2116 33.977 17.8388 33.1721 17.093C32.379 16.3355 31.9824 15.4299 31.9824 14.3764C31.9824 13.3348 32.379 12.4411 33.1721 11.6953C33.977 10.9377 34.9417 10.5589 36.0662 10.5589C37.1908 10.5589 38.1496 10.9377 38.9426 11.6953C39.7476 12.4411 40.15 13.3348 40.15 14.3764C40.15 15.4299 39.7476 16.3355 38.9426 17.093C38.1496 17.8388 37.1908 18.2116 36.0662 18.2116ZM53.4535 33.233V49H45.8896V21.7273H53.0984V26.5391H53.418C54.0217 24.9529 55.0337 23.6982 56.4542 22.7749C57.8746 21.8397 59.5969 21.3722 61.6211 21.3722C63.515 21.3722 65.1663 21.7865 66.5749 22.6151C67.9835 23.4437 69.0785 24.6274 69.8597 26.1662C70.641 27.6932 71.0316 29.5161 71.0316 31.6349V49H63.4677V32.9844C63.4795 31.3153 63.0534 30.0133 62.1893 29.0781C61.3252 28.1312 60.1355 27.6577 58.6204 27.6577C57.6024 27.6577 56.7028 27.8767 55.9215 28.3146C55.1521 28.7526 54.5484 29.3918 54.1104 30.2322C53.6843 31.0608 53.4653 32.0611 53.4535 33.233ZM87.0428 49.4439C84.9713 49.4439 83.0951 48.9112 81.4142 47.8459C79.7452 46.7687 78.4194 45.1884 77.437 43.1051C76.4663 41.0099 75.981 38.4413 75.981 35.3991C75.981 32.2741 76.4841 29.6759 77.4902 27.6044C78.4964 25.5211 79.834 23.9645 81.503 22.9347C83.1839 21.893 85.0246 21.3722 87.025 21.3722C88.552 21.3722 89.8245 21.6326 90.8425 22.1534C91.8723 22.6624 92.7009 23.3016 93.3283 24.071C93.9675 24.8286 94.4528 25.5743 94.7843 26.3082H95.0151V12.6364H102.561V49H95.1039V44.6321H94.7843C94.4292 45.3897 93.9261 46.1413 93.275 46.8871C92.6358 47.621 91.8013 48.2306 90.7715 48.7159C89.7535 49.2012 88.5106 49.4439 87.0428 49.4439ZM89.4398 43.4247C90.659 43.4247 91.6889 43.0933 92.5293 42.4304C93.3816 41.7557 94.0326 40.8146 94.4824 39.6072C94.9441 38.3999 95.1749 36.9853 95.1749 35.3636C95.1749 33.742 94.95 32.3333 94.5002 31.1378C94.0504 29.9422 93.3993 29.0189 92.5471 28.3679C91.6948 27.7169 90.659 27.3913 89.4398 27.3913C88.1969 27.3913 87.1493 27.7287 86.2971 28.4034C85.4448 29.0781 84.7997 30.0133 84.3617 31.2088C83.9237 32.4044 83.7047 33.7893 83.7047 35.3636C83.7047 36.9498 83.9237 38.3525 84.3617 39.5717C84.8115 40.7791 85.4566 41.7261 86.2971 42.4126C87.1493 43.0874 88.1969 43.4247 89.4398 43.4247ZM137.842 37.3878V21.7273H145.406V49H138.144V44.0462H137.86C137.244 45.6442 136.22 46.9285 134.788 47.8991C133.367 48.8698 131.633 49.3551 129.585 49.3551C127.762 49.3551 126.159 48.9408 124.774 48.1122C123.389 47.2836 122.306 46.1058 121.524 44.5788C120.755 43.0518 120.364 41.223 120.352 39.0923V21.7273H127.916V37.7429C127.928 39.3527 128.36 40.6252 129.213 41.5604C130.065 42.4955 131.207 42.9631 132.639 42.9631C133.551 42.9631 134.403 42.7559 135.196 42.3416C135.989 41.9155 136.628 41.2881 137.114 40.4595C137.611 39.6309 137.854 38.607 137.842 37.3878ZM174.148 29.5043L167.223 29.9304C167.105 29.3385 166.85 28.8059 166.46 28.3324C166.069 27.8471 165.554 27.4624 164.915 27.1783C164.287 26.8823 163.536 26.7344 162.66 26.7344C161.488 26.7344 160.5 26.983 159.695 27.4801C158.89 27.9654 158.487 28.6165 158.487 29.4332C158.487 30.0843 158.748 30.6347 159.268 31.0845C159.789 31.5343 160.683 31.8954 161.95 32.1676L166.886 33.1619C169.537 33.7064 171.514 34.5824 172.816 35.7898C174.118 36.9972 174.769 38.5833 174.769 40.5483C174.769 42.3357 174.242 43.9041 173.189 45.2536C172.147 46.603 170.715 47.6565 168.892 48.4141C167.081 49.1598 164.992 49.5327 162.624 49.5327C159.014 49.5327 156.138 48.781 153.995 47.2777C151.864 45.7625 150.616 43.7029 150.249 41.0987L157.688 40.7081C157.913 41.8089 158.458 42.6494 159.322 43.2294C160.186 43.7976 161.293 44.0817 162.642 44.0817C163.968 44.0817 165.033 43.8272 165.838 43.3182C166.655 42.7973 167.069 42.1286 167.081 41.3118C167.069 40.6252 166.779 40.063 166.211 39.625C165.643 39.1752 164.767 38.8319 163.583 38.5952L158.86 37.6541C156.197 37.1214 154.214 36.1982 152.912 34.8842C151.622 33.5703 150.977 31.8954 150.977 29.8594C150.977 28.1075 151.45 26.5982 152.397 25.3317C153.356 24.0651 154.699 23.0885 156.428 22.402C158.168 21.7154 160.204 21.3722 162.536 21.3722C165.98 21.3722 168.691 22.1001 170.668 23.5561C172.656 25.0121 173.816 26.9948 174.148 29.5043Z" fill="white"/>
<path d="M22.1489 161.992L26.2151 156.617C30.4594 150.939 44.3066 131.593 44.3066 121.016C44.3076 107.249 35.4053 98 22.1538 98C8.90229 98 0 107.249 0 121.017C0 132.407 16.2608 154.183 18.1104 156.622L22.1489 161.992ZM8.16307 121.158C8.16307 113.387 14.439 107.064 22.1538 107.064C29.8686 107.064 36.1445 113.387 36.1445 121.158C36.1445 128.929 29.8686 135.252 22.1538 135.252C14.439 135.252 8.16307 128.93 8.16307 121.158Z" fill="white"/>
<path d="M85.5156 113.443V111.845L91.1726 102.909H92.4318V105.261H91.6328L87.5866 111.666V111.768H95.3402V113.443H85.5156ZM91.7223 116V112.957L91.7351 112.229V102.909H93.608V116H91.7223ZM102.125 116.217C101.115 116.213 100.252 115.947 99.5366 115.418C98.8207 114.89 98.2731 114.121 97.8938 113.111C97.5146 112.101 97.3249 110.884 97.3249 109.461C97.3249 108.042 97.5146 106.83 97.8938 105.824C98.2773 104.818 98.8271 104.051 99.543 103.523C100.263 102.994 101.124 102.73 102.125 102.73C103.127 102.73 103.985 102.996 104.701 103.529C105.417 104.058 105.965 104.825 106.344 105.83C106.728 106.832 106.919 108.042 106.919 109.461C106.919 110.888 106.73 112.107 106.35 113.117C105.971 114.123 105.424 114.892 104.708 115.425C103.992 115.953 103.131 116.217 102.125 116.217ZM102.125 114.511C103.012 114.511 103.704 114.078 104.203 113.213C104.706 112.348 104.957 111.097 104.957 109.461C104.957 108.374 104.842 107.456 104.612 106.706C104.386 105.952 104.06 105.381 103.634 104.993C103.212 104.601 102.709 104.405 102.125 104.405C101.243 104.405 100.551 104.839 100.048 105.709C99.5451 106.578 99.2915 107.829 99.2873 109.461C99.2873 110.552 99.4002 111.474 99.6261 112.229C99.8562 112.979 100.182 113.548 100.604 113.935C101.026 114.319 101.533 114.511 102.125 114.511ZM113.744 116.217C112.735 116.213 111.872 115.947 111.156 115.418C110.44 114.89 109.892 114.121 109.513 113.111C109.134 112.101 108.944 110.884 108.944 109.461C108.944 108.042 109.134 106.83 109.513 105.824C109.896 104.818 110.446 104.051 111.162 103.523C111.882 102.994 112.743 102.73 113.744 102.73C114.746 102.73 115.605 102.996 116.32 103.529C117.036 104.058 117.584 104.825 117.963 105.83C118.347 106.832 118.539 108.042 118.539 109.461C118.539 110.888 118.349 112.107 117.97 113.117C117.59 114.123 117.043 114.892 116.327 115.425C115.611 115.953 114.75 116.217 113.744 116.217ZM113.744 114.511C114.631 114.511 115.323 114.078 115.822 113.213C116.325 112.348 116.576 111.097 116.576 109.461C116.576 108.374 116.461 107.456 116.231 106.706C116.005 105.952 115.679 105.381 115.253 104.993C114.831 104.601 114.328 104.405 113.744 104.405C112.862 104.405 112.17 104.839 111.667 105.709C111.164 106.578 110.911 107.829 110.906 109.461C110.906 110.552 111.019 111.474 111.245 112.229C111.475 112.979 111.801 113.548 112.223 113.935C112.645 114.319 113.152 114.511 113.744 114.511ZM125.749 116V102.909H127.724V114.3H133.656V116H125.749ZM138.613 116.217C137.991 116.217 137.428 116.102 136.925 115.872C136.422 115.638 136.024 115.299 135.73 114.856C135.44 114.413 135.295 113.869 135.295 113.226C135.295 112.672 135.402 112.216 135.615 111.858C135.828 111.5 136.116 111.217 136.478 111.008C136.84 110.799 137.245 110.641 137.692 110.535C138.14 110.428 138.596 110.347 139.06 110.292C139.648 110.224 140.126 110.168 140.492 110.126C140.858 110.079 141.125 110.004 141.291 109.902C141.457 109.8 141.54 109.634 141.54 109.403V109.359C141.54 108.8 141.383 108.368 141.067 108.061C140.756 107.754 140.292 107.601 139.674 107.601C139.03 107.601 138.523 107.744 138.153 108.029C137.786 108.31 137.532 108.624 137.392 108.969L135.596 108.56C135.809 107.963 136.12 107.482 136.529 107.115C136.942 106.744 137.417 106.476 137.954 106.31C138.491 106.139 139.056 106.054 139.648 106.054C140.04 106.054 140.456 106.101 140.895 106.195C141.338 106.284 141.751 106.45 142.135 106.693C142.523 106.936 142.84 107.283 143.087 107.735C143.334 108.183 143.458 108.764 143.458 109.48V116H141.591V114.658H141.515C141.391 114.905 141.206 115.148 140.959 115.386C140.711 115.625 140.394 115.823 140.006 115.981C139.618 116.138 139.154 116.217 138.613 116.217ZM139.028 114.683C139.557 114.683 140.008 114.579 140.383 114.37C140.763 114.161 141.05 113.888 141.246 113.552C141.447 113.211 141.547 112.847 141.547 112.459V111.193C141.479 111.261 141.346 111.325 141.15 111.385C140.959 111.44 140.739 111.489 140.492 111.532C140.245 111.57 140.004 111.607 139.77 111.641C139.535 111.67 139.339 111.696 139.182 111.717C138.811 111.764 138.472 111.843 138.165 111.954C137.863 112.065 137.62 112.224 137.437 112.433C137.258 112.638 137.168 112.911 137.168 113.251C137.168 113.724 137.343 114.082 137.692 114.325C138.042 114.564 138.487 114.683 139.028 114.683ZM147.761 112.67L147.749 110.337H148.081L151.993 106.182H154.281L149.82 110.912H149.519L147.761 112.67ZM146.004 116V102.909H147.915V116H146.004ZM152.204 116L148.688 111.334L150.005 109.998L154.55 116H152.204ZM159.85 116.198C158.883 116.198 158.05 115.991 157.351 115.578C156.656 115.161 156.119 114.575 155.74 113.82C155.365 113.062 155.178 112.173 155.178 111.155C155.178 110.149 155.365 109.263 155.74 108.496C156.119 107.729 156.648 107.13 157.325 106.7C158.007 106.269 158.804 106.054 159.716 106.054C160.27 106.054 160.807 106.146 161.327 106.329C161.847 106.512 162.313 106.8 162.727 107.192C163.14 107.584 163.466 108.093 163.705 108.719C163.943 109.342 164.063 110.098 164.063 110.989V111.666H156.258V110.234H162.19C162.19 109.732 162.088 109.286 161.883 108.898C161.678 108.506 161.391 108.197 161.02 107.972C160.654 107.746 160.223 107.633 159.729 107.633C159.192 107.633 158.723 107.765 158.323 108.029C157.926 108.289 157.619 108.63 157.402 109.052C157.189 109.469 157.083 109.923 157.083 110.413V111.532C157.083 112.188 157.198 112.746 157.428 113.207C157.662 113.667 157.988 114.018 158.406 114.261C158.823 114.5 159.311 114.619 159.869 114.619C160.232 114.619 160.562 114.568 160.86 114.466C161.159 114.359 161.416 114.202 161.634 113.993C161.851 113.784 162.017 113.526 162.132 113.219L163.941 113.545C163.796 114.078 163.536 114.545 163.161 114.945C162.791 115.342 162.324 115.651 161.762 115.872C161.203 116.089 160.566 116.198 159.85 116.198ZM181.973 107.166H179.979C179.902 106.74 179.759 106.365 179.551 106.041C179.342 105.717 179.086 105.442 178.784 105.217C178.481 104.991 178.142 104.82 177.767 104.705C177.396 104.59 177.002 104.533 176.585 104.533C175.83 104.533 175.155 104.722 174.558 105.102C173.966 105.481 173.497 106.037 173.152 106.77C172.811 107.503 172.641 108.398 172.641 109.455C172.641 110.52 172.811 111.419 173.152 112.152C173.497 112.885 173.968 113.439 174.565 113.814C175.161 114.189 175.833 114.376 176.578 114.376C176.992 114.376 177.384 114.321 177.754 114.21C178.129 114.095 178.468 113.927 178.771 113.705C179.073 113.484 179.329 113.213 179.538 112.893C179.751 112.57 179.898 112.199 179.979 111.781L181.973 111.788C181.867 112.431 181.66 113.023 181.353 113.565C181.051 114.102 180.661 114.566 180.183 114.958C179.71 115.346 179.169 115.646 178.56 115.859C177.95 116.072 177.286 116.179 176.566 116.179C175.432 116.179 174.422 115.911 173.536 115.374C172.649 114.832 171.95 114.059 171.439 113.053C170.932 112.048 170.678 110.848 170.678 109.455C170.678 108.057 170.934 106.857 171.445 105.856C171.957 104.85 172.656 104.079 173.542 103.542C174.428 103.001 175.436 102.73 176.566 102.73C177.26 102.73 177.908 102.83 178.509 103.031C179.114 103.227 179.657 103.516 180.139 103.9C180.62 104.279 181.019 104.744 181.334 105.293C181.649 105.839 181.862 106.463 181.973 107.166ZM188.319 116.198C187.398 116.198 186.595 115.987 185.909 115.565C185.223 115.143 184.69 114.553 184.311 113.795C183.932 113.036 183.742 112.15 183.742 111.136C183.742 110.117 183.932 109.227 184.311 108.464C184.69 107.701 185.223 107.109 185.909 106.687C186.595 106.265 187.398 106.054 188.319 106.054C189.239 106.054 190.043 106.265 190.729 106.687C191.415 107.109 191.947 107.701 192.327 108.464C192.706 109.227 192.896 110.117 192.896 111.136C192.896 112.15 192.706 113.036 192.327 113.795C191.947 114.553 191.415 115.143 190.729 115.565C190.043 115.987 189.239 116.198 188.319 116.198ZM188.325 114.594C188.922 114.594 189.416 114.436 189.808 114.121C190.2 113.805 190.49 113.386 190.678 112.862C190.869 112.337 190.965 111.76 190.965 111.129C190.965 110.503 190.869 109.928 190.678 109.403C190.49 108.875 190.2 108.451 189.808 108.131C189.416 107.812 188.922 107.652 188.325 107.652C187.724 107.652 187.226 107.812 186.83 108.131C186.438 108.451 186.146 108.875 185.954 109.403C185.766 109.928 185.673 110.503 185.673 111.129C185.673 111.76 185.766 112.337 185.954 112.862C186.146 113.386 186.438 113.805 186.83 114.121C187.226 114.436 187.724 114.594 188.325 114.594ZM199.165 116.198C198.244 116.198 197.441 115.987 196.755 115.565C196.069 115.143 195.536 114.553 195.157 113.795C194.778 113.036 194.588 112.15 194.588 111.136C194.588 110.117 194.778 109.227 195.157 108.464C195.536 107.701 196.069 107.109 196.755 106.687C197.441 106.265 198.244 106.054 199.165 106.054C200.085 106.054 200.888 106.265 201.574 106.687C202.26 107.109 202.793 107.701 203.172 108.464C203.552 109.227 203.741 110.117 203.741 111.136C203.741 112.15 203.552 113.036 203.172 113.795C202.793 114.553 202.26 115.143 201.574 115.565C200.888 115.987 200.085 116.198 199.165 116.198ZM199.171 114.594C199.768 114.594 200.262 114.436 200.654 114.121C201.046 113.805 201.336 113.386 201.523 112.862C201.715 112.337 201.811 111.76 201.811 111.129C201.811 110.503 201.715 109.928 201.523 109.403C201.336 108.875 201.046 108.451 200.654 108.131C200.262 107.812 199.768 107.652 199.171 107.652C198.57 107.652 198.072 107.812 197.675 108.131C197.283 108.451 196.991 108.875 196.8 109.403C196.612 109.928 196.518 110.503 196.518 111.129C196.518 111.76 196.612 112.337 196.8 112.862C196.991 113.386 197.283 113.805 197.675 114.121C198.072 114.436 198.57 114.594 199.171 114.594ZM207.632 112.67L207.62 110.337H207.952L211.864 106.182H214.152L209.691 110.912H209.39L207.632 112.67ZM205.875 116V102.909H207.786V116H205.875ZM212.075 116L208.559 111.334L209.876 109.998L214.421 116H212.075ZM220.811 116V102.909H225.477C226.492 102.909 227.333 103.084 228.002 103.433C228.676 103.783 229.178 104.266 229.511 104.884C229.843 105.498 230.009 106.207 230.009 107.013C230.009 107.814 229.841 108.519 229.504 109.129C229.172 109.734 228.669 110.205 227.996 110.541C227.327 110.878 226.485 111.046 225.471 111.046H221.936V109.346H225.292C225.931 109.346 226.451 109.254 226.852 109.071C227.257 108.888 227.553 108.621 227.74 108.272C227.928 107.923 228.021 107.503 228.021 107.013C228.021 106.518 227.926 106.09 227.734 105.728C227.546 105.366 227.25 105.089 226.845 104.897C226.445 104.701 225.919 104.603 225.267 104.603H222.786V116H220.811ZM227.274 110.094L230.508 116H228.258L225.088 110.094H227.274ZM235.812 116.192C235.019 116.192 234.312 115.989 233.69 115.585C233.072 115.175 232.586 114.594 232.232 113.839C231.883 113.081 231.708 112.171 231.708 111.11C231.708 110.049 231.885 109.141 232.239 108.387C232.597 107.633 233.087 107.055 233.709 106.655C234.331 106.254 235.036 106.054 235.825 106.054C236.434 106.054 236.924 106.156 237.295 106.361C237.67 106.561 237.96 106.795 238.164 107.064C238.373 107.332 238.535 107.569 238.65 107.773H238.765V102.909H240.676V116H238.81V114.472H238.65C238.535 114.681 238.369 114.92 238.151 115.188C237.938 115.457 237.644 115.691 237.269 115.891C236.894 116.092 236.408 116.192 235.812 116.192ZM236.234 114.562C236.783 114.562 237.248 114.417 237.627 114.127C238.011 113.833 238.3 113.426 238.496 112.906C238.697 112.386 238.797 111.781 238.797 111.091C238.797 110.409 238.699 109.812 238.503 109.301C238.307 108.79 238.019 108.391 237.64 108.106C237.261 107.82 236.792 107.678 236.234 107.678C235.658 107.678 235.179 107.827 234.795 108.125C234.412 108.423 234.122 108.83 233.926 109.346C233.734 109.862 233.638 110.443 233.638 111.091C233.638 111.747 233.737 112.337 233.933 112.862C234.129 113.386 234.418 113.801 234.802 114.108C235.19 114.411 235.667 114.562 236.234 114.562ZM255.461 106.348C255.393 105.743 255.112 105.274 254.617 104.942C254.123 104.605 253.501 104.437 252.751 104.437C252.214 104.437 251.749 104.522 251.357 104.692C250.965 104.859 250.661 105.089 250.443 105.383C250.23 105.673 250.124 106.003 250.124 106.374C250.124 106.685 250.196 106.953 250.341 107.179C250.49 107.405 250.684 107.594 250.923 107.748C251.165 107.897 251.425 108.023 251.702 108.125C251.979 108.223 252.246 108.304 252.501 108.368L253.78 108.7C254.197 108.803 254.626 108.941 255.065 109.116C255.504 109.29 255.911 109.521 256.286 109.806C256.661 110.092 256.963 110.445 257.193 110.867C257.428 111.289 257.545 111.794 257.545 112.382C257.545 113.124 257.353 113.782 256.969 114.357C256.59 114.933 256.038 115.386 255.314 115.719C254.594 116.051 253.722 116.217 252.7 116.217C251.719 116.217 250.871 116.062 250.156 115.751C249.44 115.44 248.879 114.999 248.474 114.428C248.07 113.852 247.846 113.17 247.803 112.382H249.785C249.823 112.855 249.977 113.249 250.245 113.565C250.518 113.876 250.865 114.108 251.287 114.261C251.713 114.411 252.18 114.485 252.687 114.485C253.245 114.485 253.741 114.398 254.176 114.223C254.615 114.044 254.96 113.797 255.212 113.482C255.463 113.162 255.589 112.789 255.589 112.363C255.589 111.975 255.478 111.658 255.256 111.411C255.039 111.163 254.743 110.959 254.368 110.797C253.997 110.635 253.577 110.492 253.109 110.369L251.562 109.947C250.513 109.661 249.683 109.241 249.069 108.688C248.46 108.134 248.155 107.401 248.155 106.489C248.155 105.734 248.359 105.076 248.768 104.513C249.178 103.951 249.732 103.514 250.43 103.203C251.129 102.888 251.918 102.73 252.795 102.73C253.682 102.73 254.464 102.886 255.141 103.197C255.823 103.508 256.36 103.936 256.752 104.482C257.144 105.023 257.349 105.645 257.366 106.348H255.461ZM265.971 111.928V106.182H267.889V116H266.009V114.3H265.907C265.681 114.824 265.319 115.261 264.82 115.61C264.326 115.955 263.71 116.128 262.973 116.128C262.343 116.128 261.784 115.989 261.298 115.712C260.817 115.431 260.438 115.016 260.161 114.466C259.888 113.916 259.752 113.237 259.752 112.427V106.182H261.663V112.197C261.663 112.866 261.848 113.398 262.219 113.795C262.59 114.191 263.071 114.389 263.664 114.389C264.021 114.389 264.377 114.3 264.731 114.121C265.089 113.942 265.385 113.671 265.619 113.309C265.858 112.947 265.975 112.487 265.971 111.928ZM270.457 116V106.182H272.368V116H270.457ZM271.422 104.667C271.089 104.667 270.804 104.556 270.565 104.335C270.331 104.109 270.214 103.84 270.214 103.529C270.214 103.214 270.331 102.945 270.565 102.724C270.804 102.498 271.089 102.385 271.422 102.385C271.754 102.385 272.038 102.498 272.272 102.724C272.511 102.945 272.63 103.214 272.63 103.529C272.63 103.84 272.511 104.109 272.272 104.335C272.038 104.556 271.754 104.667 271.422 104.667ZM279.522 106.182V107.716H274.159V106.182H279.522ZM275.597 103.83H277.509V113.117C277.509 113.488 277.564 113.767 277.675 113.955C277.786 114.138 277.928 114.263 278.103 114.332C278.282 114.396 278.476 114.428 278.685 114.428C278.838 114.428 278.972 114.417 279.088 114.396C279.203 114.374 279.292 114.357 279.356 114.344L279.701 115.923C279.59 115.966 279.433 116.009 279.228 116.051C279.024 116.098 278.768 116.124 278.461 116.128C277.958 116.136 277.49 116.047 277.055 115.859C276.62 115.672 276.269 115.382 276 114.99C275.732 114.598 275.597 114.106 275.597 113.513V103.83ZM285.762 116.198C284.795 116.198 283.962 115.991 283.263 115.578C282.569 115.161 282.032 114.575 281.652 113.82C281.277 113.062 281.09 112.173 281.09 111.155C281.09 110.149 281.277 109.263 281.652 108.496C282.032 107.729 282.56 107.13 283.238 106.7C283.919 106.269 284.716 106.054 285.628 106.054C286.182 106.054 286.719 106.146 287.239 106.329C287.759 106.512 288.225 106.8 288.639 107.192C289.052 107.584 289.378 108.093 289.617 108.719C289.855 109.342 289.975 110.098 289.975 110.989V111.666H282.17V110.234H288.102C288.102 109.732 288 109.286 287.795 108.898C287.591 108.506 287.303 108.197 286.932 107.972C286.566 107.746 286.135 107.633 285.641 107.633C285.104 107.633 284.635 107.765 284.235 108.029C283.838 108.289 283.532 108.63 283.314 109.052C283.101 109.469 282.995 109.923 282.995 110.413V111.532C282.995 112.188 283.11 112.746 283.34 113.207C283.574 113.667 283.9 114.018 284.318 114.261C284.735 114.5 285.223 114.619 285.782 114.619C286.144 114.619 286.474 114.568 286.772 114.466C287.071 114.359 287.328 114.202 287.546 113.993C287.763 113.784 287.929 113.526 288.044 113.219L289.853 113.545C289.708 114.078 289.449 114.545 289.074 114.945C288.703 115.342 288.236 115.651 287.674 115.872C287.115 116.089 286.478 116.198 285.762 116.198ZM301.8 102.909V116H299.819V104.891H299.742L296.61 106.936V105.044L299.876 102.909H301.8ZM309.899 116.217C308.889 116.213 308.026 115.947 307.31 115.418C306.594 114.89 306.047 114.121 305.667 113.111C305.288 112.101 305.098 110.884 305.098 109.461C305.098 108.042 305.288 106.83 305.667 105.824C306.051 104.818 306.6 104.051 307.316 103.523C308.037 102.994 308.897 102.73 309.899 102.73C310.9 102.73 311.759 102.996 312.475 103.529C313.191 104.058 313.738 104.825 314.118 105.83C314.501 106.832 314.693 108.042 314.693 109.461C314.693 110.888 314.503 112.107 314.124 113.117C313.745 114.123 313.197 114.892 312.481 115.425C311.765 115.953 310.904 116.217 309.899 116.217ZM309.899 114.511C310.785 114.511 311.478 114.078 311.976 113.213C312.479 112.348 312.73 111.097 312.73 109.461C312.73 108.374 312.615 107.456 312.385 106.706C312.159 105.952 311.833 105.381 311.407 104.993C310.985 104.601 310.483 104.405 309.899 104.405C309.017 104.405 308.324 104.839 307.821 105.709C307.319 106.578 307.065 107.829 307.061 109.461C307.061 110.552 307.174 111.474 307.4 112.229C307.63 112.979 307.956 113.548 308.377 113.935C308.799 114.319 309.306 114.511 309.899 114.511ZM321.531 116.179C320.947 116.17 320.372 116.064 319.805 115.859C319.242 115.655 318.731 115.314 318.271 114.837C317.811 114.359 317.442 113.718 317.165 112.913C316.892 112.107 316.756 111.102 316.756 109.896C316.756 108.754 316.869 107.739 317.095 106.853C317.325 105.967 317.655 105.219 318.085 104.609C318.516 103.996 319.036 103.529 319.645 103.21C320.254 102.89 320.938 102.73 321.697 102.73C322.477 102.73 323.169 102.884 323.774 103.19C324.379 103.497 324.869 103.921 325.244 104.462C325.624 105.004 325.865 105.619 325.967 106.31H324.017C323.885 105.764 323.623 105.319 323.231 104.974C322.839 104.629 322.328 104.456 321.697 104.456C320.738 104.456 319.99 104.874 319.453 105.709C318.921 106.544 318.652 107.705 318.648 109.192H318.744C318.97 108.822 319.247 108.506 319.575 108.246C319.907 107.982 320.278 107.78 320.687 107.639C321.1 107.494 321.535 107.422 321.991 107.422C322.749 107.422 323.436 107.607 324.049 107.978C324.667 108.344 325.159 108.852 325.526 109.499C325.892 110.147 326.075 110.888 326.075 111.724C326.075 112.559 325.886 113.315 325.507 113.993C325.132 114.67 324.603 115.207 323.921 115.604C323.24 115.996 322.443 116.188 321.531 116.179ZM321.524 114.517C322.027 114.517 322.477 114.393 322.873 114.146C323.269 113.899 323.583 113.567 323.813 113.149C324.043 112.732 324.158 112.265 324.158 111.749C324.158 111.246 324.045 110.788 323.819 110.375C323.597 109.962 323.291 109.634 322.899 109.391C322.511 109.148 322.068 109.026 321.569 109.026C321.19 109.026 320.838 109.099 320.514 109.244C320.195 109.388 319.914 109.589 319.671 109.844C319.428 110.1 319.236 110.394 319.095 110.727C318.959 111.055 318.891 111.402 318.891 111.768C318.891 112.259 319.004 112.712 319.23 113.13C319.46 113.548 319.773 113.884 320.169 114.14C320.57 114.391 321.021 114.517 321.524 114.517ZM90.2074 138H85.9695V124.909H90.3416C91.6243 124.909 92.7259 125.171 93.6463 125.695C94.5668 126.215 95.272 126.963 95.7621 127.939C96.2564 128.911 96.5036 130.076 96.5036 131.435C96.5036 132.799 96.2543 133.971 95.7557 134.951C95.2614 135.931 94.5455 136.685 93.608 137.214C92.6705 137.738 91.5369 138 90.2074 138ZM87.9446 136.274H90.0987C91.0959 136.274 91.9247 136.087 92.5852 135.712C93.2457 135.332 93.7401 134.785 94.0682 134.069C94.3963 133.349 94.5604 132.471 94.5604 131.435C94.5604 130.408 94.3963 129.537 94.0682 128.821C93.7443 128.105 93.2607 127.562 92.6172 127.191C91.9737 126.82 91.1747 126.635 90.2202 126.635H87.9446V136.274ZM103.038 138.198C102.07 138.198 101.237 137.991 100.539 137.578C99.8439 137.161 99.307 136.575 98.9277 135.82C98.5527 135.062 98.3652 134.173 98.3652 133.155C98.3652 132.149 98.5527 131.263 98.9277 130.496C99.307 129.729 99.8354 129.13 100.513 128.7C101.195 128.269 101.992 128.054 102.904 128.054C103.458 128.054 103.994 128.146 104.514 128.329C105.034 128.512 105.501 128.8 105.914 129.192C106.328 129.584 106.654 130.093 106.892 130.719C107.131 131.342 107.25 132.098 107.25 132.989V133.666H99.4455V132.234H105.377C105.377 131.732 105.275 131.286 105.07 130.898C104.866 130.506 104.578 130.197 104.208 129.972C103.841 129.746 103.411 129.633 102.916 129.633C102.379 129.633 101.911 129.765 101.51 130.029C101.114 130.289 100.807 130.63 100.59 131.052C100.377 131.469 100.27 131.923 100.27 132.413V133.532C100.27 134.188 100.385 134.746 100.615 135.207C100.85 135.667 101.176 136.018 101.593 136.261C102.011 136.5 102.499 136.619 103.057 136.619C103.419 136.619 103.749 136.568 104.048 136.466C104.346 136.359 104.604 136.202 104.821 135.993C105.039 135.784 105.205 135.526 105.32 135.219L107.129 135.545C106.984 136.078 106.724 136.545 106.349 136.945C105.978 137.342 105.512 137.651 104.949 137.872C104.391 138.089 103.754 138.198 103.038 138.198ZM113.602 138.198C112.635 138.198 111.802 137.991 111.103 137.578C110.408 137.161 109.871 136.575 109.492 135.82C109.117 135.062 108.93 134.173 108.93 133.155C108.93 132.149 109.117 131.263 109.492 130.496C109.871 129.729 110.4 129.13 111.077 128.7C111.759 128.269 112.556 128.054 113.468 128.054C114.022 128.054 114.559 128.146 115.079 128.329C115.599 128.512 116.065 128.8 116.479 129.192C116.892 129.584 117.218 130.093 117.457 130.719C117.695 131.342 117.815 132.098 117.815 132.989V133.666H110.01V132.234H115.942C115.942 131.732 115.839 131.286 115.635 130.898C115.43 130.506 115.143 130.197 114.772 129.972C114.406 129.746 113.975 129.633 113.481 129.633C112.944 129.633 112.475 129.765 112.075 130.029C111.678 130.289 111.371 130.63 111.154 131.052C110.941 131.469 110.835 131.923 110.835 132.413V133.532C110.835 134.188 110.95 134.746 111.18 135.207C111.414 135.667 111.74 136.018 112.158 136.261C112.575 136.5 113.063 136.619 113.621 136.619C113.984 136.619 114.314 136.568 114.612 136.466C114.911 136.359 115.168 136.202 115.386 135.993C115.603 135.784 115.769 135.526 115.884 135.219L117.693 135.545C117.548 136.078 117.288 136.545 116.913 136.945C116.543 137.342 116.076 137.651 115.513 137.872C114.955 138.089 114.318 138.198 113.602 138.198ZM119.935 138V128.182H121.782V129.741H121.885C122.064 129.213 122.379 128.798 122.831 128.495C123.287 128.188 123.802 128.035 124.378 128.035C124.497 128.035 124.638 128.039 124.8 128.048C124.966 128.056 125.096 128.067 125.189 128.08V129.908C125.113 129.886 124.976 129.863 124.78 129.837C124.584 129.808 124.388 129.793 124.192 129.793C123.741 129.793 123.338 129.888 122.984 130.08C122.635 130.268 122.358 130.53 122.153 130.866C121.949 131.199 121.846 131.578 121.846 132.004V138H119.935ZM132.096 128.182V129.716H126.548V128.182H132.096ZM128.069 138V127.044C128.069 126.43 128.203 125.921 128.472 125.516C128.74 125.107 129.096 124.803 129.539 124.602C129.982 124.398 130.464 124.295 130.984 124.295C131.367 124.295 131.695 124.327 131.968 124.391C132.241 124.451 132.443 124.506 132.575 124.558L132.128 126.104C132.039 126.079 131.923 126.049 131.783 126.015C131.642 125.977 131.472 125.957 131.271 125.957C130.807 125.957 130.475 126.072 130.274 126.303C130.078 126.533 129.98 126.865 129.98 127.3V138H128.069ZM134.068 138V128.182H135.979V138H134.068ZM135.033 126.667C134.701 126.667 134.415 126.556 134.177 126.335C133.942 126.109 133.825 125.84 133.825 125.529C133.825 125.214 133.942 124.945 134.177 124.724C134.415 124.498 134.701 124.385 135.033 124.385C135.366 124.385 135.649 124.498 135.883 124.724C136.122 124.945 136.241 125.214 136.241 125.529C136.241 125.84 136.122 126.109 135.883 126.335C135.649 126.556 135.366 126.667 135.033 126.667ZM142.782 138.198C141.815 138.198 140.982 137.991 140.283 137.578C139.588 137.161 139.051 136.575 138.672 135.82C138.297 135.062 138.109 134.173 138.109 133.155C138.109 132.149 138.297 131.263 138.672 130.496C139.051 129.729 139.58 129.13 140.257 128.7C140.939 128.269 141.736 128.054 142.648 128.054C143.202 128.054 143.739 128.146 144.259 128.329C144.778 128.512 145.245 128.8 145.658 129.192C146.072 129.584 146.398 130.093 146.636 130.719C146.875 131.342 146.994 132.098 146.994 132.989V133.666H139.19V132.234H145.121C145.121 131.732 145.019 131.286 144.815 130.898C144.61 130.506 144.322 130.197 143.952 129.972C143.585 129.746 143.155 129.633 142.661 129.633C142.124 129.633 141.655 129.765 141.254 130.029C140.858 130.289 140.551 130.63 140.334 131.052C140.121 131.469 140.014 131.923 140.014 132.413V133.532C140.014 134.188 140.129 134.746 140.359 135.207C140.594 135.667 140.92 136.018 141.337 136.261C141.755 136.5 142.243 136.619 142.801 136.619C143.163 136.619 143.494 136.568 143.792 136.466C144.09 136.359 144.348 136.202 144.565 135.993C144.783 135.784 144.949 135.526 145.064 135.219L146.873 135.545C146.728 136.078 146.468 136.545 146.093 136.945C145.722 137.342 145.256 137.651 144.693 137.872C144.135 138.089 143.498 138.198 142.782 138.198ZM151.026 124.909V138H149.115V124.909H151.026ZM157.273 138.192C156.48 138.192 155.773 137.989 155.151 137.585C154.533 137.175 154.047 136.594 153.693 135.839C153.344 135.081 153.169 134.171 153.169 133.11C153.169 132.049 153.346 131.141 153.7 130.387C154.058 129.633 154.548 129.055 155.17 128.655C155.792 128.254 156.497 128.054 157.286 128.054C157.895 128.054 158.385 128.156 158.756 128.361C159.131 128.561 159.42 128.795 159.625 129.064C159.834 129.332 159.996 129.569 160.111 129.773H160.226V124.909H162.137V138H160.271V136.472H160.111C159.996 136.681 159.83 136.92 159.612 137.188C159.399 137.457 159.105 137.691 158.73 137.891C158.355 138.092 157.869 138.192 157.273 138.192ZM157.695 136.562C158.244 136.562 158.709 136.417 159.088 136.127C159.472 135.833 159.761 135.426 159.957 134.906C160.158 134.386 160.258 133.781 160.258 133.091C160.258 132.409 160.16 131.812 159.964 131.301C159.768 130.79 159.48 130.391 159.101 130.106C158.722 129.82 158.253 129.678 157.695 129.678C157.119 129.678 156.64 129.827 156.256 130.125C155.873 130.423 155.583 130.83 155.387 131.346C155.195 131.862 155.099 132.443 155.099 133.091C155.099 133.747 155.197 134.337 155.393 134.862C155.589 135.386 155.879 135.801 156.263 136.108C156.651 136.411 157.128 136.562 157.695 136.562ZM167.351 136.21L167.256 136.907C167.192 137.418 167.083 137.951 166.93 138.505C166.78 139.063 166.625 139.581 166.463 140.058C166.305 140.536 166.175 140.915 166.073 141.196H164.718C164.773 140.932 164.85 140.574 164.948 140.122C165.046 139.675 165.142 139.174 165.236 138.62C165.329 138.066 165.4 137.501 165.447 136.926L165.51 136.21H167.351ZM176.732 124.909V138H174.757V124.909H176.732ZM179.608 138V124.909H181.583V136.3H187.515V138H179.608ZM198.923 138.179C198.339 138.17 197.764 138.064 197.197 137.859C196.635 137.655 196.124 137.314 195.663 136.837C195.203 136.359 194.835 135.718 194.558 134.913C194.285 134.107 194.148 133.102 194.148 131.896C194.148 130.754 194.261 129.739 194.487 128.853C194.717 127.967 195.048 127.219 195.478 126.609C195.908 125.996 196.428 125.529 197.038 125.21C197.647 124.89 198.331 124.73 199.089 124.73C199.869 124.73 200.562 124.884 201.167 125.19C201.772 125.497 202.262 125.921 202.637 126.462C203.016 127.004 203.257 127.619 203.359 128.31H201.41C201.278 127.764 201.016 127.319 200.624 126.974C200.232 126.629 199.72 126.456 199.089 126.456C198.131 126.456 197.383 126.874 196.846 127.709C196.313 128.544 196.045 129.705 196.04 131.192H196.136C196.362 130.822 196.639 130.506 196.967 130.246C197.3 129.982 197.67 129.78 198.08 129.639C198.493 129.494 198.928 129.422 199.384 129.422C200.142 129.422 200.828 129.607 201.442 129.978C202.06 130.344 202.552 130.852 202.918 131.499C203.285 132.147 203.468 132.888 203.468 133.724C203.468 134.559 203.278 135.315 202.899 135.993C202.524 136.67 201.996 137.207 201.314 137.604C200.632 137.996 199.835 138.188 198.923 138.179ZM198.917 136.517C199.42 136.517 199.869 136.393 200.266 136.146C200.662 135.899 200.975 135.567 201.205 135.149C201.435 134.732 201.55 134.265 201.55 133.749C201.55 133.246 201.438 132.788 201.212 132.375C200.99 131.962 200.683 131.634 200.291 131.391C199.903 131.148 199.46 131.026 198.962 131.026C198.582 131.026 198.231 131.099 197.907 131.244C197.587 131.388 197.306 131.589 197.063 131.844C196.82 132.1 196.629 132.394 196.488 132.727C196.352 133.055 196.283 133.402 196.283 133.768C196.283 134.259 196.396 134.712 196.622 135.13C196.852 135.548 197.165 135.884 197.562 136.14C197.962 136.391 198.414 136.517 198.917 136.517ZM210.354 138.217C209.344 138.213 208.481 137.947 207.765 137.418C207.049 136.89 206.502 136.121 206.122 135.111C205.743 134.101 205.553 132.884 205.553 131.461C205.553 130.042 205.743 128.83 206.122 127.824C206.506 126.818 207.056 126.051 207.771 125.523C208.492 124.994 209.352 124.73 210.354 124.73C211.355 124.73 212.214 124.996 212.93 125.529C213.646 126.058 214.193 126.825 214.573 127.83C214.956 128.832 215.148 130.042 215.148 131.461C215.148 132.888 214.958 134.107 214.579 135.117C214.2 136.123 213.652 136.892 212.936 137.425C212.22 137.953 211.36 138.217 210.354 138.217ZM210.354 136.511C211.24 136.511 211.933 136.078 212.431 135.213C212.934 134.348 213.186 133.097 213.186 131.461C213.186 130.374 213.07 129.456 212.84 128.706C212.615 127.952 212.289 127.381 211.862 126.993C211.441 126.601 210.938 126.405 210.354 126.405C209.472 126.405 208.779 126.839 208.276 127.709C207.774 128.578 207.52 129.829 207.516 131.461C207.516 132.552 207.629 133.474 207.855 134.229C208.085 134.979 208.411 135.548 208.833 135.935C209.254 136.319 209.762 136.511 210.354 136.511ZM221.973 138.217C220.963 138.213 220.1 137.947 219.384 137.418C218.668 136.89 218.121 136.121 217.741 135.111C217.362 134.101 217.173 132.884 217.173 131.461C217.173 130.042 217.362 128.83 217.741 127.824C218.125 126.818 218.675 126.051 219.391 125.523C220.111 124.994 220.972 124.73 221.973 124.73C222.974 124.73 223.833 124.996 224.549 125.529C225.265 126.058 225.813 126.825 226.192 127.83C226.575 128.832 226.767 130.042 226.767 131.461C226.767 132.888 226.577 134.107 226.198 135.117C225.819 136.123 225.271 136.892 224.555 137.425C223.839 137.953 222.979 138.217 221.973 138.217ZM221.973 136.511C222.859 136.511 223.552 136.078 224.05 135.213C224.553 134.348 224.805 133.097 224.805 131.461C224.805 130.374 224.69 129.456 224.46 128.706C224.234 127.952 223.908 127.381 223.482 126.993C223.06 126.601 222.557 126.405 221.973 126.405C221.091 126.405 220.398 126.839 219.896 127.709C219.393 128.578 219.139 129.829 219.135 131.461C219.135 132.552 219.248 133.474 219.474 134.229C219.704 134.979 220.03 135.548 220.452 135.935C220.874 136.319 221.381 136.511 221.973 136.511ZM234.001 124.909V138H232.02V126.891H231.943L228.811 128.936V127.044L232.077 124.909H234.001ZM241.863 138.179C241.062 138.179 240.342 138.026 239.703 137.719C239.068 137.408 238.561 136.982 238.182 136.44C237.802 135.899 237.6 135.281 237.574 134.587H239.492C239.539 135.149 239.788 135.612 240.24 135.974C240.692 136.336 241.233 136.517 241.863 136.517C242.366 136.517 242.812 136.402 243.199 136.172C243.591 135.938 243.898 135.616 244.12 135.207C244.346 134.798 244.459 134.331 244.459 133.807C244.459 133.274 244.344 132.799 244.113 132.381C243.883 131.964 243.566 131.636 243.161 131.397C242.76 131.158 242.3 131.037 241.78 131.033C241.384 131.033 240.986 131.101 240.585 131.237C240.184 131.374 239.861 131.553 239.613 131.774L237.805 131.506L238.54 124.909H245.737V126.603H240.182L239.767 130.266H239.844C240.099 130.018 240.438 129.812 240.86 129.646C241.286 129.479 241.742 129.396 242.228 129.396C243.025 129.396 243.734 129.586 244.356 129.965C244.983 130.344 245.475 130.862 245.833 131.518C246.195 132.17 246.374 132.92 246.37 133.768C246.374 134.616 246.182 135.373 245.795 136.038C245.411 136.702 244.878 137.227 244.197 137.61C243.519 137.989 242.741 138.179 241.863 138.179Z" fill="white"/>
</svg>
